<svg xmlns="http://www.w3.org/2000/svg" viewBox="0 0 100 100" width="100%" height="100%">
  <defs>
    <linearGradient id="goldGrad" x1="0%" y1="0%" x2="100%" y2="100%">
      <stop offset="0%" stop-color="#fff176"/>
      <stop offset="50%" stop-color="#ffd54f"/>
      <stop offset="100%" stop-color="#ffb300"/>
    </linearGradient>
  </defs>
  <path d="M 50 50 C 30 10 5 15 12 45 C 16 62 38 55 50 50 Z" fill="url(#goldGrad)" stroke="#ff8f00" stroke-width="1.5"/>
  <path d="M 50 50 C 70 10 95 15 88 45 C 84 62 62 55 50 50 Z" fill="url(#goldGrad)" stroke="#ff8f00" stroke-width="1.5"/>
  <path d="M 50 52 C 32 58 15 78 30 88 C 42 94 48 68 50 52 Z" fill="#ffa000"/>
  <path d="M 50 52 C 68 58 85 78 70 88 C 58 94 52 68 50 52 Z" fill="#ffa000"/>
  <ellipse cx="50" cy="52" rx="4" ry="22" fill="#ff6f00"/>
  <circle cx="50" cy="27" r="4.5" fill="#ff6f00"/>
  <path d="M 48 24 Q 38 12 32 10 M 52 24 Q 62 12 68 10" fill="none" stroke="#ff6f00" stroke-width="2.5" stroke-linecap="round"/>
  <circle cx="30" cy="35" r="2" fill="#ffffff" opacity="0.9"/>
  <circle cx="70" cy="35" r="2" fill="#ffffff" opacity="0.9"/>
</svg>
